
<svg width="157" height="80" fill="none" xmlns="http://www.w3.org/2000/svg">
  <g clip-path="url(#a)" fill="#D1D1D1">
    <path fill-rule="evenodd" clip-rule="evenodd" d="M23.56 24.8h20.137a5.04 5.04 0 0 1 3.574 1.487 5.093 5.093 0 0 1 1.481 3.593v20.239c0 2.806-2.263 5.081-5.055 5.081H23.56c-2.791 0-5.054-2.275-5.054-5.081v-20.24c0-2.805 2.263-5.079 5.054-5.079Zm18.101 24.873a1.6 1.6 0 0 0 1.596-1.603l-.005-16.139a1.6 1.6 0 0 0-1.595-1.603H25.603c-.424 0-.83.17-1.129.47-.299.301-.467.71-.466 1.135V48.07a1.6 1.6 0 0 0 1.595 1.603H41.66Z"/>
    <path d="M30.42 44.122a.918.918 0 0 1-.909-.92v-6.443a.923.923 0 0 1 .267-.654.914.914 0 0 1 .649-.27h6.418c.244 0 .477.097.649.27a.924.924 0 0 1 .267.654v6.44c0 .246-.096.48-.267.654a.914.914 0 0 1-.649.272l-6.425-.003ZM64.143 38.646c-.937-.257-1.823-.499-2.511-.807-1.274-.572-1.867-1.366-1.867-2.496 0-2.135 2.055-3.097 4.1-3.097 1.944 0 3.642.808 4.782 2.274l.078.1 1.644-1.291-.08-.1c-1.515-1.939-3.76-3-6.324-3-1.707 0-3.27.462-4.402 1.305-1.274.936-1.946 2.294-1.946 3.916 0 3.768 3.53 4.687 6.369 5.426 2.871.76 4.63 1.34 4.63 3.54 0 2.166-1.743 3.566-4.44 3.566-1.334 0-3.803-.355-5.355-2.739l-.072-.112-1.729 1.258.067.102c1.468 2.233 4 3.515 6.957 3.515 4.017 0 6.716-2.28 6.716-5.669 0-3.879-3.67-4.883-6.617-5.691Z"/>
    <path fill-rule="evenodd" clip-rule="evenodd" d="M83.86 37.862v-2.04h1.933v19.375H83.86v-7.57c-1.103 1.521-2.758 2.353-4.704 2.353-3.675 0-6.243-2.957-6.243-7.227 0-4.27 2.574-7.25 6.243-7.25 1.932 0 3.588.836 4.704 2.36Zm-8.91 4.867c0 3.953 2.253 5.362 4.361 5.362l.005.001c2.76 0 4.544-2.123 4.544-5.362 0-3.24-1.787-5.334-4.549-5.334-3.215 0-4.36 2.755-4.36 5.334Z"/>
    <path d="M98.57 35.822v7.648c0 2.677-1.825 4.62-4.337 4.62-2.086 0-3.102-1.244-3.102-3.803v-8.465H89.2v8.862c0 3.318 1.794 5.3 4.8 5.3 1.872 0 3.48-.799 4.572-2.258v1.942h1.932V35.822h-1.934Z"/>
    <path fill-rule="evenodd" clip-rule="evenodd" d="M104.143 37.277c1.425-1.126 3.359-1.77 5.303-1.77 3.072 0 4.904 1.535 4.899 4.11v10.054h-1.934v-1.536c-.976 1.229-2.388 1.851-4.204 1.851-2.96 0-4.8-1.627-4.8-4.243 0-3.403 3.19-3.937 4.549-4.164.221-.037.45-.072.679-.108h.008c1.857-.288 3.773-.585 3.773-2.168 0-1.792-2.314-1.93-3.022-1.93-1.252 0-3.02.373-4.222 1.42l-.11.096-1.01-1.54.091-.072Zm1.281 8.357c0 2.218 2.078 2.458 2.972 2.458h.001c1.943 0 4.022-1.04 4.018-3.967v-2.003c-.943.598-2.284.832-3.481 1.04l-.02.004-.6.108c-1.917.357-2.89.817-2.89 2.36Z"/>
    <path d="M125.54 36.083c-.459-.328-1.182-.525-1.937-.525-1.55.02-3 .772-3.916 2.028v-1.77h-1.933V49.66h1.933v-7.404c0-3.283 1.836-4.754 3.654-4.754a3.555 3.555 0 0 1 1.542.33l.131.069.611-1.762-.085-.056Z"/>
    <path fill-rule="evenodd" clip-rule="evenodd" d="M126.105 42.783c0-4.283 2.657-7.276 6.456-7.276 3.66 0 6.218 2.656 6.21 6.466a9.647 9.647 0 0 1-.054.991l-.012.114H128.14c.048 3.048 1.874 5.015 4.675 5.015 1.606 0 2.997-.657 3.917-1.85l.083-.109 1.4 1.254-.078.094c-.93 1.14-2.626 2.5-5.429 2.5-3.947 0-6.603-2.892-6.603-7.2Zm6.403-5.412c-2.361 0-4.035 1.562-4.296 3.994h8.517c-.168-1.955-1.356-3.994-4.221-3.994Z"/>
  </g>
  <defs>
    <clipPath id="a">
      <path fill="#fff" transform="translate(18.506 24.8)" d="M0 0h120.977v30.4H0z"/>
    </clipPath>
  </defs>
</svg>
