
<svg width="157" height="80" fill="none" xmlns="http://www.w3.org/2000/svg">
  <g clip-path="url(#a)">
    <path d="M41.582 24.052c-8.764 0-15.87 7.142-15.87 15.951 0 8.81 7.106 15.95 15.87 15.95 8.765 0 15.87-7.14 15.87-15.95 0-8.809-7.105-15.95-15.87-15.95Zm7.278 23.006a.986.986 0 0 1-1.361.33c-3.726-2.288-8.416-2.806-13.94-1.538a.99.99 0 0 1-1.185-.748.993.993 0 0 1 .744-1.19c6.045-1.389 11.23-.791 15.414 1.778.466.288.614.9.328 1.368Zm1.942-4.343c-.358.585-1.12.77-1.702.41-4.265-2.636-10.768-3.399-15.813-1.86a1.238 1.238 0 0 1-1.544-.828 1.246 1.246 0 0 1 .825-1.551c5.763-1.758 12.928-.907 17.827 2.12.581.36.765 1.125.407 1.709Zm.167-4.523c-5.115-3.053-13.553-3.334-18.437-1.845a1.483 1.483 0 0 1-1.85-.994 1.494 1.494 0 0 1 .989-1.86c5.605-1.711 14.924-1.38 20.813 2.133.706.42.938 1.336.519 2.044a1.479 1.479 0 0 1-2.034.522Zm17.919.585c-2.74-.657-3.227-1.117-3.227-2.086 0-.915.856-1.53 2.132-1.53 1.235 0 2.46.467 3.744 1.43.038.029.087.04.135.032a.177.177 0 0 0 .119-.073l1.338-1.896a.182.182 0 0 0-.034-.245c-1.53-1.233-3.25-1.832-5.263-1.832-2.958 0-5.025 1.784-5.025 4.337 0 2.739 1.783 3.708 4.864 4.456 2.621.608 3.064 1.116 3.064 2.025 0 1.008-.894 1.634-2.334 1.634-1.6 0-2.905-.543-4.364-1.811a.177.177 0 0 0-.254.019l-1.501 1.794a.182.182 0 0 0 .017.252c1.698 1.523 3.786 2.327 6.041 2.327 3.188 0 5.247-1.75 5.247-4.46.006-2.288-1.356-3.554-4.694-4.37l-.005-.003ZM80.8 36.061c-1.382 0-2.515.547-3.451 1.668v-1.262c0-.1-.08-.18-.178-.18h-2.454a.18.18 0 0 0-.178.18v14.02c0 .099.08.18.178.18h2.454a.18.18 0 0 0 .178-.18v-4.425c.936 1.053 2.07 1.57 3.45 1.57 2.569 0 5.168-1.987 5.168-5.785.004-3.799-2.596-5.786-5.165-5.786H80.8Zm2.314 5.786c0 1.933-1.185 3.283-2.883 3.283-1.677 0-2.943-1.411-2.943-3.283 0-1.873 1.266-3.284 2.943-3.284 1.67 0 2.883 1.38 2.883 3.283Zm9.514-5.786c-3.306 0-5.897 2.56-5.897 5.827 0 3.233 2.574 5.764 5.858 5.764 3.318 0 5.916-2.55 5.916-5.805 0-3.244-2.581-5.786-5.877-5.786Zm0 9.088c-1.758 0-3.085-1.42-3.085-3.303 0-1.891 1.281-3.264 3.046-3.264 1.77 0 3.104 1.42 3.104 3.305 0 1.891-1.289 3.262-3.065 3.262Zm12.938-8.863h-2.701v-2.774c0-.1-.079-.18-.178-.18h-2.454a.181.181 0 0 0-.18.18v2.774h-1.179a.18.18 0 0 0-.178.181v2.12c0 .1.08.18.178.18h1.179v5.485c0 2.215 1.097 3.34 3.263 3.34.88 0 1.609-.184 2.297-.576a.176.176 0 0 0 .091-.156v-2.02a.18.18 0 0 0-.26-.16 3.083 3.083 0 0 1-1.44.35c-.786 0-1.139-.36-1.139-1.164v-5.098h2.701a.18.18 0 0 0 .178-.18v-2.12a.175.175 0 0 0-.177-.18l-.001-.002Zm9.406.011v-.34c0-1.003.383-1.45 1.24-1.45.511 0 .923.102 1.383.257a.176.176 0 0 0 .161-.026.178.178 0 0 0 .074-.146v-2.078c0-.08-.049-.15-.127-.174a6.692 6.692 0 0 0-2.039-.294c-2.264 0-3.464 1.283-3.464 3.708v.522h-1.179a.181.181 0 0 0-.18.18v2.13c0 .1.082.181.18.181h1.179v8.459c0 .1.081.18.18.18h2.452c.101 0 .18-.08.18-.18v-8.458h2.291l3.51 8.458c-.398.887-.79 1.064-1.325 1.064-.432 0-.889-.13-1.353-.386a.194.194 0 0 0-.142-.014.18.18 0 0 0-.106.097l-.832 1.835a.18.18 0 0 0 .078.234c.868.472 1.65.674 2.619.674 1.811 0 2.814-.85 3.695-3.131l4.256-11.055a.177.177 0 0 0-.019-.168.174.174 0 0 0-.146-.078h-2.554a.18.18 0 0 0-.171.121l-2.617 7.511-2.865-7.516a.18.18 0 0 0-.167-.116h-4.192Zm-5.453-.01h-2.454a.18.18 0 0 0-.18.18v10.759c0 .1.081.18.18.18h2.454a.18.18 0 0 0 .18-.18V36.468c0-.1-.08-.18-.18-.18v-.002Zm-1.213-4.9c-.972 0-1.761.791-1.761 1.769 0 .977.789 1.769 1.761 1.769.972 0 1.758-.792 1.758-1.77 0-.976-.788-1.767-1.758-1.767Zm21.493 8.359c-.97 0-1.726-.784-1.726-1.736a1.74 1.74 0 0 1 1.735-1.744c.971 0 1.727.783 1.727 1.734 0 .952-.766 1.746-1.736 1.746Zm.009-3.308c-.885 0-1.554.707-1.554 1.572 0 .865.666 1.562 1.545 1.562.885 0 1.554-.706 1.554-1.572 0-.865-.665-1.562-1.545-1.562Zm.383 1.74.489.688h-.413l-.44-.63h-.377v.63h-.345v-1.822h.808c.422 0 .699.217.699.581.002.3-.171.481-.419.554h-.002Zm-.292-.821h-.449v.576h.449c.224 0 .358-.11.358-.288 0-.188-.134-.288-.358-.288Z" fill="#D1D1D1"/>
  </g>
  <defs>
    <clipPath id="a">
      <path fill="#fff" transform="translate(25.666 24)" d="M0 0h105.931v32H0z"/>
    </clipPath>
  </defs>
</svg>
