<svg width="157" height="80" fill="none" xmlns="http://www.w3.org/2000/svg">
  <path d="M13.908 29.625h130.53c5.08 0 9.194 4.633 9.194 10.387 0 5.73-4.114 10.388-9.194 10.388H14.156c-5.08-.025-9.194-4.658-9.194-10.413 0-5.729 4.114-10.387 9.194-10.387h-.248v.025Z" stroke="#D1D1D1" stroke-width=".987"/>
  <path d="M24.118 41.333c-.62 3.96-4.064 7.025-8.228 7.025-4.61 0-8.327-3.712-8.327-8.27 0-4.56 3.743-8.27 8.327-8.27 4.164 0 7.633 3.038 8.228 6.999h-2.305c-.595-2.715-3.023-4.733-5.923-4.733-3.345 0-6.047 2.69-6.047 6.003s2.702 6.004 6.047 6.004c2.925 0 5.378-2.018 5.948-4.758h2.28" fill="#D1D1D1"/>
  <path d="M15.892 42.927c1.561 0 2.85-1.27 2.85-2.815 0-1.57-1.264-2.815-2.85-2.815-1.561 0-2.85 1.27-2.85 2.815 0 1.544 1.289 2.815 2.85 2.815Z" fill="#D1D1D1"/>
  <path d="M15.889 34.731c-2.974 0-5.403 2.392-5.403 5.356s2.404 5.356 5.403 5.356c2.974 0 5.402-2.392 5.402-5.356 0-2.94-2.428-5.356-5.402-5.356Zm0 8.868c-1.958 0-3.544-1.57-3.544-3.512 0-1.943 1.586-3.512 3.544-3.512s3.544 1.569 3.544 3.512-1.586 3.512-3.544 3.512ZM143.176 35.03c0-.971.793-1.768 1.784-1.768a1.76 1.76 0 0 1 1.784 1.768c0 .972-.793 1.769-1.784 1.769a1.76 1.76 0 0 1-1.784-1.769Zm.297 0c0 .822.669 1.47 1.487 1.47.818 0 1.487-.648 1.487-1.47s-.669-1.47-1.487-1.47c-.818 0-1.487.648-1.487 1.47Zm2.305 1.022h-.322l-.521-.922h-.372v.922h-.297v-1.993h.843c.371 0 .694.1.694.523 0 .399-.273.523-.546.548l.521.922Zm-1.215-1.694v.498h.298c.272 0 .644.05.644-.224 0-.25-.223-.274-.446-.274h-.496ZM37.377 35.479h-3.99v8.818h9.864V42.03h-5.873V35.48ZM47.712 40.934h5.824v-2.092h-5.824v-1.096h6.617v-2.267H43.722v8.818h10.98V42.03h-6.99v-1.096ZM88.28 40.934h5.825v-2.092H88.28v-1.096h6.617v-2.267H84.29v8.818h11.003V42.03h-7.013v-1.096ZM123.297 40.934h5.8v-2.092h-5.8v-1.096h6.617v-2.267h-10.607v8.818h10.979V42.03h-6.989v-1.096ZM65.334 42.304c-1.858 0-2.453-1.245-2.453-2.416 0-1.196.595-2.416 2.453-2.416 1.66 0 2.008.971 2.082 1.295h3.866c-.347-2.217-2.305-3.487-5.849-3.487-3.99 0-6.567 1.843-6.567 4.633 0 2.616 2.38 4.633 6.567 4.633 3.792 0 5.899-1.893 5.899-3.662h-3.916c-.198.797-.719 1.42-2.082 1.42ZM103.199 40.287c0 .896 0 2.017-1.833 2.017-1.884 0-1.884-1.12-1.884-2.017v-4.808h-3.866v5.405c0 2.442 1.908 3.612 5.725 3.612 3.841 0 5.7-1.17 5.7-3.612V35.48h-3.866v4.808h.024ZM115.467 38.916c-1.834-.348-3.668-.473-3.767-1.12 0-.499.892-.599 1.438-.599.396 0 .867.05 1.189.225.322.15.545.373.471.697h3.767c-.099-2.142-2.602-2.89-5.403-2.89-2.651 0-5.229.872-5.229 2.915 0 1.794 2.33 2.167 4.387 2.566 2.23.423 2.8.548 2.8 1.021 0 .648-.991.797-1.66.797-.744 0-1.611-.1-1.908-.647a1.03 1.03 0 0 1-.149-.573h-3.99c.025 2.815 4.213 3.188 5.7 3.188 2.875 0 5.972-.747 5.972-3.039.025-1.62-1.784-2.192-3.618-2.54ZM130.385 35.479v2.267h3.296v6.551h3.99v-6.551h3.147v-2.267h-10.433ZM81.167 40.312h.05c.248-.025.594-.1.594-.1 1.314-.349 1.933-1.295 1.933-2.217 0-1.67-1.957-2.516-4.213-2.516h-7.583v8.818h3.99v-3.064h1.66l1.933 3.164h4.114l-.148-.25-2.33-3.835Zm-3.147-.972h-2.082v-1.744h1.859c1.511 0 1.982.324 1.982.872 0 .772-1.016.872-1.76.872Z" fill="#D1D1D1"/>
</svg>
