<svg width="157" height="80" fill="none" xmlns="http://www.w3.org/2000/svg">
  <path d="M29.344 43.502c.171.4.115.912.029 1.226-.144.541-.515 1.11-1.602 1.11-1.029 0-1.657-.598-1.657-1.48v-1.596h-4.433v1.254c0 3.673 2.887 4.784 6.005 4.784 2.974 0 5.433-1.025 5.833-3.759.2-1.424.057-2.335-.03-2.706-.684-3.446-6.947-4.471-7.434-6.38a2.244 2.244 0 0 1-.028-.853c.115-.513.486-1.111 1.515-1.111.972 0 1.545.598 1.545 1.48v1.027h4.118v-1.169c0-3.588-3.231-4.129-5.576-4.129-2.946 0-5.32.968-5.777 3.645-.114.74-.143 1.396.029 2.222.743 3.331 6.606 4.3 7.463 6.435Zm53.614-.027c.172.398.114.91.03 1.196-.144.54-.516 1.082-1.603 1.082-1.03 0-1.629-.598-1.629-1.482v-1.565h-4.375v1.253c0 3.617 2.86 4.727 5.947 4.727 2.946 0 5.376-.997 5.777-3.73.2-1.396.056-2.336-.03-2.678-.686-3.418-6.89-4.414-7.348-6.322a2.205 2.205 0 0 1-.029-.854c.115-.513.458-1.083 1.487-1.083.944 0 1.516.599 1.516 1.48v.999h4.088v-1.14c0-3.531-3.202-4.1-5.517-4.1-2.89 0-5.262.967-5.72 3.616-.114.712-.143 1.367.03 2.192.743 3.333 6.547 4.301 7.376 6.409Zm34.228 1.452-.229-13.214h4.088v16.232h-5.89l-4.146-13.64.229 13.64h-4.061V31.713h6.12l3.889 13.214ZM43.04 32.908l-2.287 15.209h-4.46l3.03-16.404h7.349l3.031 16.404h-4.432L43.04 32.908Zm24.077 0-2.86 15.21h-4.174l-2.83-15.21-.115 15.209H53.02l.342-16.404h6.72l2.088 12.815 2.087-12.815h6.72l.371 16.404h-4.118l-.114-15.209Zm29.68 12.76c1.144 0 1.516-.798 1.574-1.197.029-.171.029-.427.029-.627v-12.16h4.174v11.792c0 .312-.029.91-.029 1.081-.286 3.077-2.717 4.074-5.747 4.074-3.031 0-5.462-.997-5.748-4.074a6.318 6.318 0 0 1-.029-1.081V31.684h4.176v12.16c0 .2 0 .456.028.627.086.427.43 1.196 1.573 1.196v.001Zm34.428-.171c1.201 0 1.602-.77 1.687-1.197.029-.198.057-.427.029-.627V41.28h-1.687V38.89h5.832v4.414c0 .314 0 .541-.056 1.083-.286 2.99-2.889 4.043-5.805 4.043s-5.519-1.052-5.804-4.043c-.057-.542-.057-.77-.057-1.083v-6.92c0-.285.028-.797.057-1.082.371-3.076 2.859-4.044 5.804-4.044 2.916 0 5.49.968 5.776 4.044.058.512.029 1.082.029 1.082v.541h-4.176v-.911s0-.399-.056-.627c-.086-.37-.4-1.196-1.658-1.196-1.202 0-1.544.797-1.631 1.197-.057.227-.057.512-.057.769v7.518c0 .2 0 .427.029.627.115.455.543 1.196 1.745 1.196h-.001Z" fill="#D1D1D1"/>
</svg>
